<svg width="48" height="48" viewBox="0 0 48 48" fill="none" xmlns="http://www.w3.org/2000/svg">
<path d="M32.5 25C32.2348 25 31.9804 25.1054 31.7929 25.2929C31.6054 25.4804 31.5 25.7348 31.5 26V30C31.5 30.2652 31.3946 30.5196 31.2071 30.7071C31.0196 30.8947 30.7652 31 30.5 31H16.5C16.2348 31 15.9804 30.8947 15.7929 30.7071C15.6054 30.5196 15.5 30.2652 15.5 30V20.41L21.38 26.3C21.9412 26.8567 22.6995 27.1693 23.49 27.17C23.8903 27.171 24.2867 27.0919 24.656 26.9373C25.0252 26.7828 25.3598 26.5559 25.64 26.27L26.53 25.39C26.6669 25.1969 26.7309 24.9615 26.7106 24.7256C26.6902 24.4897 26.5869 24.2687 26.4188 24.1019C26.2508 23.9351 26.0291 23.8333 25.7931 23.8147C25.5571 23.796 25.3221 23.8617 25.13 24L24.2 24.91C24.0131 25.0932 23.7618 25.1959 23.5 25.1959C23.2382 25.1959 22.9869 25.0932 22.8 24.91L16.91 19H21.5C21.7652 19 22.0196 18.8947 22.2071 18.7071C22.3946 18.5196 22.5 18.2652 22.5 18C22.5 17.7348 22.3946 17.4804 22.2071 17.2929C22.0196 17.1054 21.7652 17 21.5 17H16.5C15.7044 17 14.9413 17.3161 14.3787 17.8787C13.8161 18.4413 13.5 19.2044 13.5 20V30C13.5 30.7957 13.8161 31.5587 14.3787 32.1213C14.9413 32.6839 15.7044 33 16.5 33H30.5C31.2956 33 32.0587 32.6839 32.6213 32.1213C33.1839 31.5587 33.5 30.7957 33.5 30V26C33.5 25.7348 33.3946 25.4804 33.2071 25.2929C33.0196 25.1054 32.7652 25 32.5 25ZM33.55 16C33.0433 15.5115 32.3949 15.1961 31.6978 15.0991C31.0007 15.0021 30.2908 15.1284 29.67 15.46C28.9859 15.0838 28.1892 14.9664 27.4256 15.1293C26.6621 15.2922 25.9827 15.7246 25.5117 16.3473C25.0408 16.9699 24.8097 17.7414 24.8608 18.5205C24.9119 19.2995 25.2417 20.0342 25.79 20.59L29 23.71C29.1916 23.8927 29.4452 23.9963 29.71 24C29.8416 24.0008 29.9721 23.9756 30.0939 23.9258C30.2157 23.876 30.3266 23.8027 30.42 23.71L33.59 20.54C34.1748 19.9265 34.4977 19.1094 34.4902 18.2619C34.4828 17.4144 34.1455 16.6031 33.55 16V16ZM32.14 19.12L29.67 21.59L27.21 19.12C27.0944 19.0025 27.0032 18.8633 26.9414 18.7105C26.8796 18.5577 26.8485 18.3942 26.8499 18.2294C26.8527 17.8965 26.9876 17.5784 27.225 17.345C27.4624 17.1116 27.7827 16.9821 28.1156 16.9849C28.4485 16.9877 28.7666 17.1226 29 17.36C29.093 17.4537 29.2036 17.5281 29.3254 17.5789C29.4473 17.6297 29.578 17.6558 29.71 17.6558C29.842 17.6558 29.9727 17.6297 30.0946 17.5789C30.2164 17.5281 30.327 17.4537 30.42 17.36C30.6577 17.135 30.9726 17.0095 31.3 17.0095C31.6274 17.0095 31.9423 17.135 32.18 17.36C32.4044 17.6005 32.5258 17.9193 32.5184 18.2482C32.5109 18.577 32.3751 18.8899 32.14 19.12V19.12Z" fill="white" fill-opacity="0.4"/>
</svg>
