<svg width="30" height="24" viewBox="0 0 30 24" fill="none" xmlns="http://www.w3.org/2000/svg">
<g clip-path="url(#clip0)">
<path fill-rule="evenodd" clip-rule="evenodd" d="M29.5321 2.84097C28.4456 3.32293 27.2778 3.64852 26.0524 3.795C27.3031 3.04518 28.2639 1.8579 28.7163 0.443C27.5455 1.1373 26.2489 1.6416 24.8687 1.9132C23.7636 0.7356 22.189 0 20.4463 0C17.1003 0 14.3874 2.7127 14.3874 6.0586C14.3874 6.53347 14.441 6.99594 14.5443 7.4394C9.50883 7.18675 5.04433 4.7746 2.05633 1.1089C1.5348 2.00372 1.23593 3.0444 1.23593 4.1548C1.23593 6.2569 2.30553 8.1113 3.93133 9.198C2.93817 9.1664 2.00393 8.89397 1.18703 8.44006C1.18644 8.46546 1.18644 8.49071 1.18644 8.5164C1.18644 11.4519 3.27494 13.9005 6.04664 14.4573C5.53825 14.5957 5.00294 14.6698 4.45044 14.6698C4.06003 14.6698 3.6804 14.6318 3.31034 14.5611C4.08142 16.9681 6.31894 18.7199 8.97024 18.7687C6.89664 20.3938 4.28424 21.3625 1.44554 21.3625C0.956494 21.3625 0.474244 21.3337 0.000244141 21.2776C2.68164 22.9968 5.86634 24 9.28784 24C20.4318 24 26.5268 14.7676 26.5268 6.761C26.5268 6.49831 26.5208 6.23696 26.5091 5.97708C27.693 5.12287 28.7202 4.05588 29.5324 2.84078" fill="white" fill-opacity="0.6"/>
</g>
<defs>
<clipPath id="clip0">
<rect width="30" height="24" fill="white"/>
</clipPath>
</defs>
</svg>
